<?xml version="1.0" encoding="UTF-8" standalone="no"?>
<!-- Created with Inkscape (http://www.inkscape.org/) -->

<svg
   width="76.848663mm"
   height="71.147514mm"
   viewBox="0 0 76.848663 71.147514"
   version="1.1"
   id="svg2054"
   xmlns:inkscape="http://www.inkscape.org/namespaces/inkscape"
   xmlns:sodipodi="http://sodipodi.sourceforge.net/DTD/sodipodi-0.dtd"
   xmlns="http://www.w3.org/2000/svg"
   xmlns:svg="http://www.w3.org/2000/svg">
  <sodipodi:namedview
     id="namedview2056"
     pagecolor="#505050"
     bordercolor="#eeeeee"
     borderopacity="1"
     inkscape:showpageshadow="0"
     inkscape:pageopacity="0"
     inkscape:pagecheckerboard="0"
     inkscape:deskcolor="#505050"
     inkscape:document-units="mm"
     showgrid="false" />
  <defs
     id="defs2051" />
  <g
     inkscape:label="Layer 1"
     inkscape:groupmode="layer"
     id="layer1"
     transform="translate(-71.824411,-37.550417)">
    <g
       id="g1950"
       transform="matrix(0.35277777,0,0,-0.35277777,-696.58493,269.91194)"
       inkscape:label="iSpy">
      <g
         id="g1240"
         transform="translate(2235.9365,658.3081)">
        <path
           d="m 0,0 h 102.305 c 13.674,0 25.448,-9.65 28.131,-23.058 l 28.722,-143.571 c 0.371,-1.854 0.558,-3.74 0.558,-5.63 0,-15.857 -12.858,-28.71 -28.719,-28.71 H -28.689 c -1.892,0 -3.779,0.186 -5.633,0.557 -15.553,3.11 -25.639,18.235 -22.529,33.783 l 28.724,143.575 C -25.445,-9.649 -13.673,0 0,0"
           style="fill:#fffdd9;fill-opacity:1;fill-rule:nonzero;stroke:none"
           id="path1242" />
      </g>
      <g
         id="g1244"
         transform="translate(2235.9365,658.3081)">
        <path
           d="m 0,0 h 102.305 c 13.674,0 25.448,-9.65 28.131,-23.058 l 28.722,-143.571 c 0.371,-1.854 0.558,-3.74 0.558,-5.63 0,-15.857 -12.858,-28.71 -28.719,-28.71 H -28.689 c -1.892,0 -3.779,0.186 -5.633,0.557 -15.553,3.11 -25.639,18.235 -22.529,33.783 l 28.724,143.575 C -25.445,-9.649 -13.673,0 0,0 Z"
           style="fill:none;stroke:#231f20;stroke-width:0.709;stroke-linecap:round;stroke-linejoin:round;stroke-miterlimit:10;stroke-dasharray:none;stroke-opacity:1"
           id="path1246" />
      </g>
      <g
         id="g1248"
         transform="translate(2343.0361,561.1934)">
        <path
           d="m 0,0 c 0,4.481 -3.633,8.114 -8.115,8.114 h -47.877 -47.878 c -4.483,0 -8.115,-3.633 -8.115,-8.114 v -16.101 c 0,-7.169 5.529,-13.177 12.682,-13.657 15.535,-1.04 30.509,5.799 39.875,18.138 0.92,1.212 2.468,1.915 4.19,1.657 1.088,-0.163 2.038,-0.812 2.703,-1.687 9.353,-12.3 24.283,-19.126 39.78,-18.113 C -5.572,-29.293 0,-23.295 0,-16.099 Z"
           style="fill:#00a650;fill-opacity:1;fill-rule:nonzero;stroke:none"
           id="path1250" />
      </g>
      <g
         id="g1252"
         transform="translate(2343.0361,561.1934)">
        <path
           d="m 0,0 c 0,4.481 -3.633,8.114 -8.115,8.114 h -47.877 -47.878 c -4.483,0 -8.115,-3.633 -8.115,-8.114 v -16.101 c 0,-7.169 5.529,-13.177 12.682,-13.657 15.535,-1.04 30.509,5.799 39.875,18.138 0.92,1.212 2.468,1.915 4.19,1.657 1.088,-0.163 2.038,-0.812 2.703,-1.687 9.353,-12.3 24.283,-19.126 39.78,-18.113 C -5.572,-29.293 0,-23.295 0,-16.099 Z"
           style="fill:none;stroke:#231f20;stroke-width:0.709;stroke-linecap:round;stroke-linejoin:round;stroke-miterlimit:10;stroke-dasharray:none;stroke-opacity:1"
           id="path1254" />
      </g>
      <g
         id="g1256"
         transform="translate(2315.7363,623.5503)">
        <path
           d="M 0,0 C -3.3,4.689 -9.016,7.046 -14.662,6.048 H -28.687 -42.714 C -48.36,7.046 -54.076,4.689 -57.376,0 l -17.175,-24.404 c -1.343,-1.908 -3.53,-3.043 -5.863,-3.043 h -16.212 c -4.268,0 -8.163,-2.834 -9.092,-6.998 -1.324,-5.932 3.155,-11.185 8.861,-11.185 h 68.17 67.937 c 4.268,0 8.163,2.834 9.092,6.998 1.324,5.932 -3.154,11.185 -8.861,11.185 H 23.038 c -2.333,0 -4.52,1.135 -5.863,3.043 z"
           style="fill:#00a650;fill-opacity:1;fill-rule:nonzero;stroke:none"
           id="path1258" />
      </g>
      <g
         id="g1260"
         transform="translate(2315.7363,623.5503)">
        <path
           d="M 0,0 C -3.3,4.689 -9.016,7.046 -14.662,6.048 H -28.687 -42.714 C -48.36,7.046 -54.076,4.689 -57.376,0 l -17.175,-24.404 c -1.343,-1.908 -3.53,-3.043 -5.863,-3.043 h -16.212 c -4.268,0 -8.163,-2.834 -9.092,-6.998 -1.324,-5.932 3.155,-11.185 8.861,-11.185 h 68.17 67.937 c 4.268,0 8.163,2.834 9.092,6.998 1.324,5.932 -3.154,11.185 -8.861,11.185 H 23.038 c -2.333,0 -4.52,1.135 -5.863,3.043 z"
           style="fill:none;stroke:#231f20;stroke-width:0.709;stroke-linecap:round;stroke-linejoin:round;stroke-miterlimit:10;stroke-dasharray:none;stroke-opacity:1"
           id="path1262" />
      </g>
      <g
         id="g1264"
         transform="translate(2321.3066,514.9707)">
        <path
           d="m 0,0 c -2.253,3.66 -5.089,6.927 -8.396,9.67 -7.935,5.983 -18.875,5.983 -26.809,0 -7.934,5.983 -18.873,5.983 -26.808,0 -3.307,-2.743 -6.144,-6.01 -8.396,-9.67 -3.901,-7.534 -10.45,-13.36 -18.389,-16.357 -4.389,-1.942 -9.535,-0.638 -12.471,3.157 -3.523,4.555 -2.686,11.104 1.871,14.627 -9.178,-4.646 -12.851,-15.85 -8.204,-25.025 1.751,-3.457 4.538,-6.282 7.971,-8.081 14.526,-7.316 31.754,-6.859 45.871,1.218 6.632,2.996 12.865,6.806 18.555,11.342 5.69,-4.536 11.924,-8.346 18.556,-11.342 14.117,-8.077 31.345,-8.534 45.871,-1.218 9.111,4.775 12.627,16.029 7.85,25.138 -1.8,3.432 -4.625,6.218 -8.084,7.968 3.796,-2.935 5.1,-8.079 3.158,-12.467 -2.33,-5.267 -8.49,-7.647 -13.757,-5.317 C 10.45,-13.36 3.9,-7.534 0,0"
           style="fill:#00a650;fill-opacity:1;fill-rule:nonzero;stroke:none"
           id="path1266" />
      </g>
      <g
         id="g1268"
         transform="translate(2321.3066,514.9707)">
        <path
           d="m 0,0 c -2.253,3.66 -5.089,6.927 -8.396,9.67 -7.935,5.983 -18.875,5.983 -26.809,0 -7.934,5.983 -18.873,5.983 -26.808,0 -3.307,-2.743 -6.144,-6.01 -8.396,-9.67 -3.901,-7.534 -10.45,-13.36 -18.389,-16.357 -4.389,-1.942 -9.535,-0.638 -12.471,3.157 -3.523,4.555 -2.686,11.104 1.871,14.627 -9.178,-4.646 -12.851,-15.85 -8.204,-25.025 1.751,-3.457 4.538,-6.282 7.971,-8.081 14.526,-7.316 31.754,-6.859 45.871,1.218 6.632,2.996 12.865,6.806 18.555,11.342 5.69,-4.536 11.924,-8.346 18.556,-11.342 14.117,-8.077 31.345,-8.534 45.871,-1.218 9.111,4.775 12.627,16.029 7.85,25.138 -1.8,3.432 -4.625,6.218 -8.084,7.968 3.796,-2.935 5.1,-8.079 3.158,-12.467 -2.33,-5.267 -8.49,-7.647 -13.757,-5.317 C 10.45,-13.36 3.9,-7.534 0,0 Z"
           style="fill:none;stroke:#231f20;stroke-width:0.709;stroke-linecap:round;stroke-linejoin:round;stroke-miterlimit:10;stroke-dasharray:none;stroke-opacity:1"
           id="path1270" />
      </g>
    </g>
  </g>
</svg>
